<svg width="25" height="23" viewBox="0 0 25 23" fill="none" xmlns="http://www.w3.org/2000/svg">
<path id="Vector" d="M12.5 23C15.8152 23 18.9946 21.7884 21.3388 19.6317C23.683 17.4751 25 14.55 25 11.5C25 8.45001 23.683 5.52494 21.3388 3.36827C18.9946 1.2116 15.8152 0 12.5 0C9.18479 0 6.00537 1.2116 3.66117 3.36827C1.31696 5.52494 0 8.45001 0 11.5C0 14.55 1.31696 17.4751 3.66117 19.6317C6.00537 21.7884 9.18479 23 12.5 23ZM18.0176 9.38867L11.7676 15.1387C11.3086 15.5609 10.5664 15.5609 10.1123 15.1387L6.98731 12.2637C6.52832 11.8414 6.52832 11.1586 6.98731 10.7408C7.44629 10.323 8.18848 10.3186 8.64258 10.7408L10.9375 12.8521L16.3574 7.86133C16.8164 7.43906 17.5586 7.43906 18.0127 7.86133C18.4668 8.28359 18.4717 8.96641 18.0127 9.38418L18.0176 9.38867Z" fill="#3B7850"/>
</svg>
